# xmcd
#
# Track frame offsets:
#	183
#	17243
#	34810
#	46280
#	55778
#	70143
#	80370
#	94550
#	104368
#	115948
#	129655
#	148688
#	163075
#	174760
#
# Disc length: 2547 seconds
#
# Revision: 3
# Processed by: cddbd v1.5.2PL0 Copyright (c) Steve Scherf et al.
# Submitted via: audiograbber 1.83.01
#
DISCID=b509f10e
DTITLE=Various Artist - Country Christmas
DYEAR=1996
DGENRE=Country
TTITLE0=Faron Young - White Christmas
TTITLE1=Clinton Gregory - Christmas In Virginia
TTITLE2=Floyd Cramer - Medley - We Wish You A Merry Christmas, I'll Be Home For 
TTITLE2=Christmas
TTITLE3=Jack Robertson - My Favourite Time Of The Year
TTITLE4=Clinton Gregory - Blue Christmas
TTITLE5=Ray Price - With Christmas Near
TTITLE6=The Greezinslaws - Merry Christmas Baby
TTITLE7=Buddy Emmons - Sleigh Ride
TTITLE8=Ray Price - For Christmas
TTITLE9=Buddy Emmons - Have Yourself A Merry Little Christmas
TTITLE10=Floyd Cramer - Medley - Silver Bells, Winter Wonderland, Up On The Hous
TTITLE10=etop, Jingle Bells
TTITLE11=Faron Young - The Christmas Song
TTITLE12=The Greezinslaws - Lighten Up It's Christmas
TTITLE13=Jack Greene - I'd Be Home On Christmas Day
EXTD=
EXTT0=
EXTT1=
EXTT2=We Wish You A Merry Christmas\nI'll Be Home For Christmas
EXTT3=
EXTT4=
EXTT5=
EXTT6=
EXTT7=
EXTT8=
EXTT9=
EXTT10=Silver Bells\nWinter Wonderland\nUp On The Housetop\nJingle Bells
EXTT11=
EXTT12=
EXTT13=
PLAYORDER=
